<mxfile host="app.diagrams.net" modified="2023-10-31T20:59:47.087Z" agent="Mozilla/5.0 (Windows NT 10.0; Win64; x64) AppleWebKit/537.36 (KHTML, like Gecko) Chrome/118.0.0.0 Safari/537.36" etag="SrZXB_avioWgYEbDHb45" version="22.0.8" type="github" pages="4">
  <diagram name="Sistemas Alto Nível" id="c8laOl57KDvpZLAOo3bX">
    <mxGraphModel dx="1050" dy="542" grid="1" gridSize="10" guides="1" tooltips="1" connect="1" arrows="1" fold="1" page="1" pageScale="1" pageWidth="827" pageHeight="1169" math="0" shadow="0">
      <root>
        <mxCell id="HdD_rNmY9ElQzWqeGUqa-0" />
        <mxCell id="HdD_rNmY9ElQzWqeGUqa-1" parent="HdD_rNmY9ElQzWqeGUqa-0" />
        <mxCell id="M16S2Pb91_vcim21Qb1e-5" style="edgeStyle=orthogonalEdgeStyle;rounded=0;orthogonalLoop=1;jettySize=auto;html=1;entryX=1;entryY=0.5;entryDx=0;entryDy=0;" parent="HdD_rNmY9ElQzWqeGUqa-1" source="ht8XV2pE33Yyfoe8M8yu-0" target="M16S2Pb91_vcim21Qb1e-2" edge="1">
          <mxGeometry relative="1" as="geometry" />
        </mxCell>
        <mxCell id="ht8XV2pE33Yyfoe8M8yu-0" value="NETSales / &lt;br&gt;NETSMS" style="whiteSpace=wrap;html=1;aspect=fixed;fillColor=#f8cecc;strokeColor=#b85450;" parent="HdD_rNmY9ElQzWqeGUqa-1" vertex="1">
          <mxGeometry x="374" y="220" width="80" height="80" as="geometry" />
        </mxCell>
        <mxCell id="ht8XV2pE33Yyfoe8M8yu-5" value="" style="edgeStyle=orthogonalEdgeStyle;rounded=0;orthogonalLoop=1;jettySize=auto;html=1;entryX=0.25;entryY=0;entryDx=0;entryDy=0;" parent="HdD_rNmY9ElQzWqeGUqa-1" source="ht8XV2pE33Yyfoe8M8yu-4" target="ht8XV2pE33Yyfoe8M8yu-0" edge="1">
          <mxGeometry relative="1" as="geometry" />
        </mxCell>
        <mxCell id="ht8XV2pE33Yyfoe8M8yu-4" value="Coletivos" style="whiteSpace=wrap;html=1;aspect=fixed;fillColor=#f8cecc;strokeColor=#b85450;" parent="HdD_rNmY9ElQzWqeGUqa-1" vertex="1">
          <mxGeometry x="334" y="90" width="80" height="80" as="geometry" />
        </mxCell>
        <mxCell id="ht8XV2pE33Yyfoe8M8yu-6" value="API PROPOSALS (SOLAR)" style="whiteSpace=wrap;html=1;aspect=fixed;fillColor=#f8cecc;strokeColor=#b85450;" parent="HdD_rNmY9ElQzWqeGUqa-1" vertex="1">
          <mxGeometry x="439" y="90" width="80" height="80" as="geometry" />
        </mxCell>
        <mxCell id="ht8XV2pE33Yyfoe8M8yu-9" value="" style="edgeStyle=orthogonalEdgeStyle;rounded=0;orthogonalLoop=1;jettySize=auto;html=1;" parent="HdD_rNmY9ElQzWqeGUqa-1" source="ht8XV2pE33Yyfoe8M8yu-8" target="ht8XV2pE33Yyfoe8M8yu-6" edge="1">
          <mxGeometry relative="1" as="geometry" />
        </mxCell>
        <mxCell id="ht8XV2pE33Yyfoe8M8yu-8" value="SOLAR VENDA PROSPECT" style="whiteSpace=wrap;html=1;aspect=fixed;" parent="HdD_rNmY9ElQzWqeGUqa-1" vertex="1">
          <mxGeometry x="559" y="90" width="80" height="80" as="geometry" />
        </mxCell>
        <mxCell id="ht8XV2pE33Yyfoe8M8yu-10" value="API PROPOSALS (DIGITAL)" style="whiteSpace=wrap;html=1;aspect=fixed;fillColor=#fff2cc;strokeColor=#d6b656;" parent="HdD_rNmY9ElQzWqeGUqa-1" vertex="1">
          <mxGeometry x="439" y="350" width="80" height="80" as="geometry" />
        </mxCell>
        <mxCell id="ht8XV2pE33Yyfoe8M8yu-12" value="" style="edgeStyle=orthogonalEdgeStyle;rounded=0;orthogonalLoop=1;jettySize=auto;html=1;" parent="HdD_rNmY9ElQzWqeGUqa-1" source="ht8XV2pE33Yyfoe8M8yu-11" target="ht8XV2pE33Yyfoe8M8yu-10" edge="1">
          <mxGeometry relative="1" as="geometry" />
        </mxCell>
        <mxCell id="ht8XV2pE33Yyfoe8M8yu-11" value="E-COMMERCE" style="whiteSpace=wrap;html=1;aspect=fixed;" parent="HdD_rNmY9ElQzWqeGUqa-1" vertex="1">
          <mxGeometry x="559" y="350" width="80" height="80" as="geometry" />
        </mxCell>
        <mxCell id="ht8XV2pE33Yyfoe8M8yu-15" value="" style="edgeStyle=orthogonalEdgeStyle;rounded=0;orthogonalLoop=1;jettySize=auto;html=1;" parent="HdD_rNmY9ElQzWqeGUqa-1" source="ht8XV2pE33Yyfoe8M8yu-14" target="ht8XV2pE33Yyfoe8M8yu-8" edge="1">
          <mxGeometry relative="1" as="geometry" />
        </mxCell>
        <mxCell id="ht8XV2pE33Yyfoe8M8yu-14" value="Cliente Presencial&lt;br&gt;/Televendas" style="shape=umlActor;verticalLabelPosition=bottom;verticalAlign=top;html=1;" parent="HdD_rNmY9ElQzWqeGUqa-1" vertex="1">
          <mxGeometry x="699" y="97.5" width="30" height="65" as="geometry" />
        </mxCell>
        <mxCell id="ht8XV2pE33Yyfoe8M8yu-17" value="" style="edgeStyle=orthogonalEdgeStyle;rounded=0;orthogonalLoop=1;jettySize=auto;html=1;" parent="HdD_rNmY9ElQzWqeGUqa-1" source="ht8XV2pE33Yyfoe8M8yu-16" target="ht8XV2pE33Yyfoe8M8yu-11" edge="1">
          <mxGeometry relative="1" as="geometry" />
        </mxCell>
        <mxCell id="ht8XV2pE33Yyfoe8M8yu-16" value="Cliente Digital" style="shape=umlActor;verticalLabelPosition=bottom;verticalAlign=top;html=1;" parent="HdD_rNmY9ElQzWqeGUqa-1" vertex="1">
          <mxGeometry x="699" y="357.5" width="30" height="65" as="geometry" />
        </mxCell>
        <mxCell id="ht8XV2pE33Yyfoe8M8yu-18" value="Conexão" style="whiteSpace=wrap;html=1;aspect=fixed;" parent="HdD_rNmY9ElQzWqeGUqa-1" vertex="1">
          <mxGeometry x="559" y="250" width="80" height="80" as="geometry" />
        </mxCell>
        <mxCell id="ht8XV2pE33Yyfoe8M8yu-20" value="Sistemas residenciais envolvidos na demanda" style="text;strokeColor=none;fillColor=none;html=1;fontSize=24;fontStyle=1;verticalAlign=middle;align=center;" parent="HdD_rNmY9ElQzWqeGUqa-1" vertex="1">
          <mxGeometry x="364" y="10" width="100" height="40" as="geometry" />
        </mxCell>
        <mxCell id="M16S2Pb91_vcim21Qb1e-1" value="" style="edgeStyle=elbowEdgeStyle;elbow=horizontal;endArrow=classic;html=1;curved=0;rounded=0;endSize=8;startSize=8;entryX=1;entryY=0.5;entryDx=0;entryDy=0;" parent="HdD_rNmY9ElQzWqeGUqa-1" target="ht8XV2pE33Yyfoe8M8yu-18" edge="1">
          <mxGeometry width="50" height="50" relative="1" as="geometry">
            <mxPoint x="720" y="220" as="sourcePoint" />
            <mxPoint x="440" y="260" as="targetPoint" />
            <Array as="points">
              <mxPoint x="720" y="260" />
            </Array>
          </mxGeometry>
        </mxCell>
        <mxCell id="M16S2Pb91_vcim21Qb1e-2" value="Robô/Backend (Global Hitss / Innolevels)" style="whiteSpace=wrap;html=1;aspect=fixed;fillColor=#e1d5e7;strokeColor=#9673a6;" parent="HdD_rNmY9ElQzWqeGUqa-1" vertex="1">
          <mxGeometry x="200" y="220" width="80" height="80" as="geometry" />
        </mxCell>
        <mxCell id="M16S2Pb91_vcim21Qb1e-3" value="Ativação Simplificada" style="whiteSpace=wrap;html=1;aspect=fixed;" parent="HdD_rNmY9ElQzWqeGUqa-1" vertex="1">
          <mxGeometry x="70" y="300" width="80" height="80" as="geometry" />
        </mxCell>
        <mxCell id="M16S2Pb91_vcim21Qb1e-6" value="" style="edgeStyle=elbowEdgeStyle;elbow=vertical;endArrow=classic;html=1;curved=0;rounded=0;endSize=8;startSize=8;exitX=0;exitY=0.5;exitDx=0;exitDy=0;" parent="HdD_rNmY9ElQzWqeGUqa-1" source="M16S2Pb91_vcim21Qb1e-2" edge="1">
          <mxGeometry width="50" height="50" relative="1" as="geometry">
            <mxPoint x="390" y="310" as="sourcePoint" />
            <mxPoint x="110" y="300" as="targetPoint" />
            <Array as="points">
              <mxPoint x="160" y="260" />
            </Array>
          </mxGeometry>
        </mxCell>
        <mxCell id="M16S2Pb91_vcim21Qb1e-7" value="" style="edgeStyle=segmentEdgeStyle;endArrow=classic;html=1;curved=0;rounded=0;endSize=8;startSize=8;exitX=0;exitY=0.5;exitDx=0;exitDy=0;entryX=0.5;entryY=1;entryDx=0;entryDy=0;" parent="HdD_rNmY9ElQzWqeGUqa-1" source="ht8XV2pE33Yyfoe8M8yu-10" target="ht8XV2pE33Yyfoe8M8yu-0" edge="1">
          <mxGeometry width="50" height="50" relative="1" as="geometry">
            <mxPoint x="390" y="310" as="sourcePoint" />
            <mxPoint x="440" y="260" as="targetPoint" />
          </mxGeometry>
        </mxCell>
        <mxCell id="M16S2Pb91_vcim21Qb1e-8" value="" style="edgeStyle=elbowEdgeStyle;elbow=vertical;endArrow=classic;html=1;curved=0;rounded=0;endSize=8;startSize=8;entryX=0.75;entryY=0;entryDx=0;entryDy=0;exitX=0.5;exitY=1;exitDx=0;exitDy=0;" parent="HdD_rNmY9ElQzWqeGUqa-1" source="ht8XV2pE33Yyfoe8M8yu-6" target="ht8XV2pE33Yyfoe8M8yu-0" edge="1">
          <mxGeometry width="50" height="50" relative="1" as="geometry">
            <mxPoint x="390" y="310" as="sourcePoint" />
            <mxPoint x="440" y="260" as="targetPoint" />
          </mxGeometry>
        </mxCell>
        <mxCell id="M16S2Pb91_vcim21Qb1e-9" value="" style="edgeStyle=elbowEdgeStyle;elbow=horizontal;endArrow=classic;html=1;curved=0;rounded=0;endSize=8;startSize=8;exitX=0;exitY=0.5;exitDx=0;exitDy=0;entryX=1;entryY=0.75;entryDx=0;entryDy=0;" parent="HdD_rNmY9ElQzWqeGUqa-1" source="ht8XV2pE33Yyfoe8M8yu-18" target="ht8XV2pE33Yyfoe8M8yu-0" edge="1">
          <mxGeometry width="50" height="50" relative="1" as="geometry">
            <mxPoint x="390" y="310" as="sourcePoint" />
            <mxPoint x="440" y="260" as="targetPoint" />
          </mxGeometry>
        </mxCell>
        <mxCell id="M16S2Pb91_vcim21Qb1e-10" value="" style="edgeStyle=elbowEdgeStyle;elbow=horizontal;endArrow=classic;html=1;curved=0;rounded=0;endSize=8;startSize=8;entryX=1;entryY=0.25;entryDx=0;entryDy=0;" parent="HdD_rNmY9ElQzWqeGUqa-1" target="ht8XV2pE33Yyfoe8M8yu-0" edge="1">
          <mxGeometry width="50" height="50" relative="1" as="geometry">
            <mxPoint x="660" y="180" as="sourcePoint" />
            <mxPoint x="440" y="260" as="targetPoint" />
            <Array as="points">
              <mxPoint x="520" y="210" />
            </Array>
          </mxGeometry>
        </mxCell>
        <mxCell id="54_aKg4cdUlzOyrP3HWh-0" value="MÓVEL" style="whiteSpace=wrap;html=1;aspect=fixed;" vertex="1" parent="HdD_rNmY9ElQzWqeGUqa-1">
          <mxGeometry x="70" y="70" width="80" height="80" as="geometry" />
        </mxCell>
        <mxCell id="54_aKg4cdUlzOyrP3HWh-3" style="edgeStyle=orthogonalEdgeStyle;rounded=0;orthogonalLoop=1;jettySize=auto;html=1;entryX=0;entryY=0.25;entryDx=0;entryDy=0;" edge="1" parent="HdD_rNmY9ElQzWqeGUqa-1" source="54_aKg4cdUlzOyrP3HWh-1" target="ht8XV2pE33Yyfoe8M8yu-0">
          <mxGeometry relative="1" as="geometry">
            <Array as="points">
              <mxPoint x="290" y="150" />
              <mxPoint x="290" y="240" />
            </Array>
          </mxGeometry>
        </mxCell>
        <mxCell id="54_aKg4cdUlzOyrP3HWh-4" value="CONTROL-M" style="edgeLabel;html=1;align=center;verticalAlign=middle;resizable=0;points=[];" vertex="1" connectable="0" parent="54_aKg4cdUlzOyrP3HWh-3">
          <mxGeometry x="0.4311" y="3" relative="1" as="geometry">
            <mxPoint y="-7" as="offset" />
          </mxGeometry>
        </mxCell>
        <mxCell id="54_aKg4cdUlzOyrP3HWh-1" value="Interface &lt;br&gt;Móvel" style="strokeWidth=2;html=1;shape=mxgraph.flowchart.multi-document;whiteSpace=wrap;fillColor=#f8cecc;strokeColor=#b85450;" vertex="1" parent="HdD_rNmY9ElQzWqeGUqa-1">
          <mxGeometry x="196" y="120" width="88" height="60" as="geometry" />
        </mxCell>
        <mxCell id="54_aKg4cdUlzOyrP3HWh-2" style="edgeStyle=orthogonalEdgeStyle;rounded=0;orthogonalLoop=1;jettySize=auto;html=1;entryX=0;entryY=0.5;entryDx=0;entryDy=0;entryPerimeter=0;" edge="1" parent="HdD_rNmY9ElQzWqeGUqa-1" source="54_aKg4cdUlzOyrP3HWh-0" target="54_aKg4cdUlzOyrP3HWh-1">
          <mxGeometry relative="1" as="geometry" />
        </mxCell>
        <mxCell id="54_aKg4cdUlzOyrP3HWh-24" value="" style="group" vertex="1" connectable="0" parent="HdD_rNmY9ElQzWqeGUqa-1">
          <mxGeometry x="180" y="360" width="160" height="72" as="geometry" />
        </mxCell>
        <mxCell id="54_aKg4cdUlzOyrP3HWh-7" value="" style="group;align=left;" vertex="1" connectable="0" parent="54_aKg4cdUlzOyrP3HWh-24">
          <mxGeometry width="130" height="30" as="geometry" />
        </mxCell>
        <mxCell id="54_aKg4cdUlzOyrP3HWh-5" value="" style="whiteSpace=wrap;html=1;aspect=fixed;fillColor=#f8cecc;strokeColor=#b85450;" vertex="1" parent="54_aKg4cdUlzOyrP3HWh-7">
          <mxGeometry y="10" width="10" height="10" as="geometry" />
        </mxCell>
        <mxCell id="54_aKg4cdUlzOyrP3HWh-6" value="Todos fornecedores" style="text;html=1;strokeColor=none;fillColor=none;align=center;verticalAlign=middle;whiteSpace=wrap;rounded=0;" vertex="1" parent="54_aKg4cdUlzOyrP3HWh-7">
          <mxGeometry x="15" width="120" height="30" as="geometry" />
        </mxCell>
        <mxCell id="54_aKg4cdUlzOyrP3HWh-16" value="" style="group" vertex="1" connectable="0" parent="54_aKg4cdUlzOyrP3HWh-24">
          <mxGeometry x="30" y="30" width="130" height="30" as="geometry" />
        </mxCell>
        <mxCell id="54_aKg4cdUlzOyrP3HWh-17" value="" style="whiteSpace=wrap;html=1;aspect=fixed;fillColor=#e1d5e7;strokeColor=#9673a6;" vertex="1" parent="54_aKg4cdUlzOyrP3HWh-16">
          <mxGeometry x="-29" y="1" width="10" height="10" as="geometry" />
        </mxCell>
        <mxCell id="54_aKg4cdUlzOyrP3HWh-18" value="Hitss/Inolevels" style="text;html=1;strokeColor=none;fillColor=none;align=left;verticalAlign=middle;whiteSpace=wrap;rounded=0;" vertex="1" parent="54_aKg4cdUlzOyrP3HWh-24">
          <mxGeometry x="19" y="20" width="120" height="30" as="geometry" />
        </mxCell>
        <mxCell id="54_aKg4cdUlzOyrP3HWh-22" value="" style="whiteSpace=wrap;html=1;aspect=fixed;fillColor=#fff2cc;strokeColor=#d6b656;" vertex="1" parent="54_aKg4cdUlzOyrP3HWh-24">
          <mxGeometry x="1" y="52" width="10" height="10" as="geometry" />
        </mxCell>
        <mxCell id="54_aKg4cdUlzOyrP3HWh-23" value="DXC" style="text;html=1;strokeColor=none;fillColor=none;align=left;verticalAlign=middle;whiteSpace=wrap;rounded=0;" vertex="1" parent="54_aKg4cdUlzOyrP3HWh-24">
          <mxGeometry x="19" y="42" width="120" height="30" as="geometry" />
        </mxCell>
      </root>
    </mxGraphModel>
  </diagram>
  <diagram name="Prospect NETSales" id="nftzNEsQ4DKYTYbzkJBY">
    <mxGraphModel dx="1050" dy="542" grid="1" gridSize="10" guides="1" tooltips="1" connect="1" arrows="1" fold="1" page="1" pageScale="1" pageWidth="827" pageHeight="1169" math="0" shadow="0">
      <root>
        <mxCell id="0" />
        <mxCell id="1" parent="0" />
        <mxCell id="BzSE3qXNDW1A7PbjzAHN-1" value="Venda Prospect COLETIVOS/ NETSales - Combo Multi" style="whiteSpace=wrap;html=1;aspect=fixed;fillColor=#f8cecc;strokeColor=#b85450;" parent="1" vertex="1">
          <mxGeometry x="130" y="130" width="80" height="80" as="geometry" />
        </mxCell>
        <mxCell id="BzSE3qXNDW1A7PbjzAHN-2" value="" style="edgeStyle=orthogonalEdgeStyle;rounded=0;orthogonalLoop=1;jettySize=auto;html=1;" parent="1" source="BzSE3qXNDW1A7PbjzAHN-3" target="BzSE3qXNDW1A7PbjzAHN-35" edge="1">
          <mxGeometry relative="1" as="geometry" />
        </mxCell>
        <mxCell id="BzSE3qXNDW1A7PbjzAHN-3" value="" style="strokeWidth=2;html=1;shape=mxgraph.flowchart.decision;whiteSpace=wrap;" parent="1" vertex="1">
          <mxGeometry x="340" y="42.5" width="40" height="30" as="geometry" />
        </mxCell>
        <mxCell id="BzSE3qXNDW1A7PbjzAHN-4" value="Possui produto com marcação de tecnologia 5GSA?" style="whiteSpace=wrap;html=1;aspect=fixed;fillColor=#f8cecc;strokeColor=#b85450;" parent="1" vertex="1">
          <mxGeometry x="210" y="17.5" width="80" height="80" as="geometry" />
        </mxCell>
        <UserObject label="Sim" placeholders="1" name="Variable" id="BzSE3qXNDW1A7PbjzAHN-5">
          <mxCell style="text;html=1;strokeColor=none;fillColor=none;align=center;verticalAlign=middle;whiteSpace=wrap;overflow=hidden;" parent="1" vertex="1">
            <mxGeometry x="380" y="30" width="40" height="20" as="geometry" />
          </mxCell>
        </UserObject>
        <mxCell id="BzSE3qXNDW1A7PbjzAHN-6" value="Cliente Presencial&lt;br&gt;/Televendas" style="shape=umlActor;verticalLabelPosition=bottom;verticalAlign=top;html=1;" parent="1" vertex="1">
          <mxGeometry x="34" y="137.5" width="30" height="65" as="geometry" />
        </mxCell>
        <mxCell id="BzSE3qXNDW1A7PbjzAHN-7" value="" style="edgeStyle=elbowEdgeStyle;elbow=horizontal;endArrow=classic;html=1;curved=0;rounded=0;endSize=8;startSize=8;entryX=0;entryY=0.5;entryDx=0;entryDy=0;" parent="1" source="BzSE3qXNDW1A7PbjzAHN-6" target="BzSE3qXNDW1A7PbjzAHN-1" edge="1">
          <mxGeometry width="50" height="50" relative="1" as="geometry">
            <mxPoint x="390" y="310" as="sourcePoint" />
            <mxPoint x="440" y="260" as="targetPoint" />
          </mxGeometry>
        </mxCell>
        <mxCell id="BzSE3qXNDW1A7PbjzAHN-8" value="" style="edgeStyle=elbowEdgeStyle;elbow=horizontal;endArrow=classic;html=1;curved=0;rounded=0;endSize=8;startSize=8;entryX=0.5;entryY=1;entryDx=0;entryDy=0;exitX=1;exitY=0.5;exitDx=0;exitDy=0;" parent="1" source="BzSE3qXNDW1A7PbjzAHN-1" target="BzSE3qXNDW1A7PbjzAHN-4" edge="1">
          <mxGeometry width="50" height="50" relative="1" as="geometry">
            <mxPoint x="60" y="68" as="sourcePoint" />
            <mxPoint x="100" y="68" as="targetPoint" />
            <Array as="points">
              <mxPoint x="250" y="140" />
            </Array>
          </mxGeometry>
        </mxCell>
        <mxCell id="BzSE3qXNDW1A7PbjzAHN-10" value="" style="edgeStyle=elbowEdgeStyle;elbow=horizontal;endArrow=classic;html=1;curved=0;rounded=0;endSize=8;startSize=8;entryX=0;entryY=0.5;entryDx=0;entryDy=0;exitX=1;exitY=0.5;exitDx=0;exitDy=0;entryPerimeter=0;" parent="1" source="BzSE3qXNDW1A7PbjzAHN-4" target="BzSE3qXNDW1A7PbjzAHN-3" edge="1">
          <mxGeometry width="50" height="50" relative="1" as="geometry">
            <mxPoint x="180" y="68" as="sourcePoint" />
            <mxPoint x="220" y="68" as="targetPoint" />
          </mxGeometry>
        </mxCell>
        <mxCell id="BzSE3qXNDW1A7PbjzAHN-11" value="" style="edgeStyle=elbowEdgeStyle;elbow=horizontal;endArrow=classic;html=1;curved=0;rounded=0;endSize=8;startSize=8;exitX=1;exitY=0.5;exitDx=0;exitDy=0;exitPerimeter=0;entryX=0;entryY=0.5;entryDx=0;entryDy=0;entryPerimeter=0;" parent="1" source="BzSE3qXNDW1A7PbjzAHN-3" target="BzSE3qXNDW1A7PbjzAHN-13" edge="1">
          <mxGeometry width="50" height="50" relative="1" as="geometry">
            <mxPoint x="190" y="78" as="sourcePoint" />
            <mxPoint x="450" y="57.5" as="targetPoint" />
          </mxGeometry>
        </mxCell>
        <mxCell id="BzSE3qXNDW1A7PbjzAHN-13" value="" style="strokeWidth=2;html=1;shape=mxgraph.flowchart.decision;whiteSpace=wrap;fillColor=#f8cecc;strokeColor=#b85450;" parent="1" vertex="1">
          <mxGeometry x="600" y="42.5" width="40" height="30" as="geometry" />
        </mxCell>
        <UserObject label="Vendedor seleciona tecnologia" placeholders="1" name="Variable" id="BzSE3qXNDW1A7PbjzAHN-14">
          <mxCell style="text;html=1;strokeColor=none;fillColor=none;align=center;verticalAlign=middle;whiteSpace=wrap;overflow=hidden;" parent="1" vertex="1">
            <mxGeometry x="530" y="17.5" width="175" height="20" as="geometry" />
          </mxCell>
        </UserObject>
        <mxCell id="BzSE3qXNDW1A7PbjzAHN-15" value="" style="ellipse;html=1;shape=endState;fillColor=#000000;strokeColor=#ff0000;" parent="1" vertex="1">
          <mxGeometry x="730" y="42.5" width="30" height="30" as="geometry" />
        </mxCell>
        <UserObject label="As-Is" placeholders="1" name="Variable" id="BzSE3qXNDW1A7PbjzAHN-16">
          <mxCell style="text;html=1;strokeColor=none;fillColor=none;align=center;verticalAlign=middle;whiteSpace=wrap;overflow=hidden;" parent="1" vertex="1">
            <mxGeometry x="727.5" y="17.5" width="35" height="20" as="geometry" />
          </mxCell>
        </UserObject>
        <UserObject label="4G" placeholders="1" name="Variable" id="BzSE3qXNDW1A7PbjzAHN-17">
          <mxCell style="text;html=1;strokeColor=none;fillColor=none;align=center;verticalAlign=middle;whiteSpace=wrap;overflow=hidden;" parent="1" vertex="1">
            <mxGeometry x="670" y="60" width="40" height="20" as="geometry" />
          </mxCell>
        </UserObject>
        <mxCell id="BzSE3qXNDW1A7PbjzAHN-19" value="" style="edgeStyle=elbowEdgeStyle;elbow=horizontal;endArrow=classic;html=1;curved=0;rounded=0;endSize=8;startSize=8;exitX=1;exitY=0.5;exitDx=0;exitDy=0;entryX=0;entryY=0.5;entryDx=0;entryDy=0;exitPerimeter=0;" parent="1" source="BzSE3qXNDW1A7PbjzAHN-13" target="BzSE3qXNDW1A7PbjzAHN-15" edge="1">
          <mxGeometry width="50" height="50" relative="1" as="geometry">
            <mxPoint x="540" y="68" as="sourcePoint" />
            <mxPoint x="610" y="68" as="targetPoint" />
          </mxGeometry>
        </mxCell>
        <mxCell id="BzSE3qXNDW1A7PbjzAHN-20" value="Titular e todos dependentes recebem chip 5GSA" style="whiteSpace=wrap;html=1;aspect=fixed;" parent="1" vertex="1">
          <mxGeometry x="580" y="130" width="80" height="80" as="geometry" />
        </mxCell>
        <mxCell id="BzSE3qXNDW1A7PbjzAHN-21" value="" style="edgeStyle=elbowEdgeStyle;elbow=horizontal;endArrow=classic;html=1;curved=0;rounded=0;endSize=8;startSize=8;exitX=0.5;exitY=1;exitDx=0;exitDy=0;entryX=0.5;entryY=0;entryDx=0;entryDy=0;exitPerimeter=0;" parent="1" source="BzSE3qXNDW1A7PbjzAHN-13" target="BzSE3qXNDW1A7PbjzAHN-20" edge="1">
          <mxGeometry width="50" height="50" relative="1" as="geometry">
            <mxPoint x="540" y="68" as="sourcePoint" />
            <mxPoint x="610" y="68" as="targetPoint" />
          </mxGeometry>
        </mxCell>
        <UserObject label="5GSA" placeholders="1" name="Variable" id="BzSE3qXNDW1A7PbjzAHN-22">
          <mxCell style="text;html=1;strokeColor=none;fillColor=none;align=center;verticalAlign=middle;whiteSpace=wrap;overflow=hidden;" parent="1" vertex="1">
            <mxGeometry x="580" y="90" width="40" height="20" as="geometry" />
          </mxCell>
        </UserObject>
        <mxCell id="BzSE3qXNDW1A7PbjzAHN-23" value="" style="edgeStyle=orthogonalEdgeStyle;rounded=0;orthogonalLoop=1;jettySize=auto;html=1;" parent="1" source="BzSE3qXNDW1A7PbjzAHN-24" target="BzSE3qXNDW1A7PbjzAHN-26" edge="1">
          <mxGeometry relative="1" as="geometry" />
        </mxCell>
        <mxCell id="BzSE3qXNDW1A7PbjzAHN-24" value="" style="strokeWidth=2;html=1;shape=mxgraph.flowchart.decision;whiteSpace=wrap;" parent="1" vertex="1">
          <mxGeometry x="600" y="304" width="40" height="30" as="geometry" />
        </mxCell>
        <mxCell id="BzSE3qXNDW1A7PbjzAHN-25" value="" style="edgeStyle=elbowEdgeStyle;elbow=horizontal;endArrow=classic;html=1;curved=0;rounded=0;endSize=8;startSize=8;exitX=0.5;exitY=1;exitDx=0;exitDy=0;entryX=0.5;entryY=0;entryDx=0;entryDy=0;entryPerimeter=0;" parent="1" source="BzSE3qXNDW1A7PbjzAHN-20" target="BzSE3qXNDW1A7PbjzAHN-24" edge="1">
          <mxGeometry width="50" height="50" relative="1" as="geometry">
            <mxPoint x="540" y="68" as="sourcePoint" />
            <mxPoint x="610" y="68" as="targetPoint" />
          </mxGeometry>
        </mxCell>
        <mxCell id="BzSE3qXNDW1A7PbjzAHN-26" value="Abertura de OS (logística)" style="whiteSpace=wrap;html=1;aspect=fixed;" parent="1" vertex="1">
          <mxGeometry x="710" y="279" width="80" height="80" as="geometry" />
        </mxCell>
        <mxCell id="BzSE3qXNDW1A7PbjzAHN-27" value="Entrega chip presencial" style="whiteSpace=wrap;html=1;aspect=fixed;" parent="1" vertex="1">
          <mxGeometry x="450" y="279" width="80" height="80" as="geometry" />
        </mxCell>
        <mxCell id="BzSE3qXNDW1A7PbjzAHN-28" value="" style="edgeStyle=elbowEdgeStyle;elbow=horizontal;endArrow=classic;html=1;curved=0;rounded=0;endSize=8;startSize=8;exitX=0;exitY=0.5;exitDx=0;exitDy=0;entryX=1;entryY=0.5;entryDx=0;entryDy=0;exitPerimeter=0;" parent="1" source="BzSE3qXNDW1A7PbjzAHN-24" target="BzSE3qXNDW1A7PbjzAHN-27" edge="1">
          <mxGeometry width="50" height="50" relative="1" as="geometry">
            <mxPoint x="540" y="112" as="sourcePoint" />
            <mxPoint x="610" y="112" as="targetPoint" />
          </mxGeometry>
        </mxCell>
        <UserObject label="Presencial" placeholders="1" name="Variable" id="BzSE3qXNDW1A7PbjzAHN-29">
          <mxCell style="text;html=1;strokeColor=none;fillColor=none;align=center;verticalAlign=middle;whiteSpace=wrap;overflow=hidden;" parent="1" vertex="1">
            <mxGeometry x="540" y="294" width="60" height="20" as="geometry" />
          </mxCell>
        </UserObject>
        <UserObject label="Remoto" placeholders="1" name="Variable" id="BzSE3qXNDW1A7PbjzAHN-30">
          <mxCell style="text;html=1;strokeColor=none;fillColor=none;align=center;verticalAlign=middle;whiteSpace=wrap;overflow=hidden;" parent="1" vertex="1">
            <mxGeometry x="640" y="294" width="60" height="20" as="geometry" />
          </mxCell>
        </UserObject>
        <mxCell id="BzSE3qXNDW1A7PbjzAHN-31" value="&lt;p style=&quot;line-height: normal; margin: 0pt 0in; text-indent: 0in; direction: ltr; unicode-bidi: embed; word-break: normal;&quot;&gt;Ativa plano com oferta serviço 5GSA + chip 5G&lt;/p&gt;" style="whiteSpace=wrap;html=1;aspect=fixed;fillColor=#e1d5e7;strokeColor=#9673a6;" parent="1" vertex="1">
          <mxGeometry x="580" y="370" width="80" height="80" as="geometry" />
        </mxCell>
        <mxCell id="BzSE3qXNDW1A7PbjzAHN-32" value="" style="edgeStyle=elbowEdgeStyle;elbow=horizontal;endArrow=classic;html=1;curved=0;rounded=0;endSize=8;startSize=8;exitX=0.5;exitY=1;exitDx=0;exitDy=0;entryX=0;entryY=0.5;entryDx=0;entryDy=0;" parent="1" source="BzSE3qXNDW1A7PbjzAHN-27" target="BzSE3qXNDW1A7PbjzAHN-31" edge="1">
          <mxGeometry width="50" height="50" relative="1" as="geometry">
            <mxPoint x="390" y="112" as="sourcePoint" />
            <mxPoint x="460" y="112" as="targetPoint" />
            <Array as="points">
              <mxPoint x="490" y="424" />
            </Array>
          </mxGeometry>
        </mxCell>
        <mxCell id="BzSE3qXNDW1A7PbjzAHN-33" value="" style="edgeStyle=elbowEdgeStyle;elbow=horizontal;endArrow=classic;html=1;curved=0;rounded=0;endSize=8;startSize=8;exitX=0.5;exitY=1;exitDx=0;exitDy=0;entryX=1;entryY=0.5;entryDx=0;entryDy=0;" parent="1" source="BzSE3qXNDW1A7PbjzAHN-26" target="BzSE3qXNDW1A7PbjzAHN-31" edge="1">
          <mxGeometry width="50" height="50" relative="1" as="geometry">
            <mxPoint x="500" y="369" as="sourcePoint" />
            <mxPoint x="590" y="464" as="targetPoint" />
            <Array as="points">
              <mxPoint x="750" y="404" />
            </Array>
          </mxGeometry>
        </mxCell>
        <mxCell id="BzSE3qXNDW1A7PbjzAHN-34" value="" style="edgeStyle=orthogonalEdgeStyle;rounded=0;orthogonalLoop=1;jettySize=auto;html=1;" parent="1" source="BzSE3qXNDW1A7PbjzAHN-35" target="BzSE3qXNDW1A7PbjzAHN-39" edge="1">
          <mxGeometry relative="1" as="geometry" />
        </mxCell>
        <mxCell id="BzSE3qXNDW1A7PbjzAHN-35" value="Cliente não elegível solicita chip 5GSA" style="whiteSpace=wrap;html=1;aspect=fixed;" parent="1" vertex="1">
          <mxGeometry x="320" y="130" width="80" height="80" as="geometry" />
        </mxCell>
        <UserObject label="Não" placeholders="1" name="Variable" id="BzSE3qXNDW1A7PbjzAHN-36">
          <mxCell style="text;html=1;strokeColor=none;fillColor=none;align=center;verticalAlign=middle;whiteSpace=wrap;overflow=hidden;" parent="1" vertex="1">
            <mxGeometry x="360" y="80" width="40" height="20" as="geometry" />
          </mxCell>
        </UserObject>
        <mxCell id="BzSE3qXNDW1A7PbjzAHN-37" value="" style="edgeStyle=orthogonalEdgeStyle;rounded=0;orthogonalLoop=1;jettySize=auto;html=1;" parent="1" source="BzSE3qXNDW1A7PbjzAHN-39" target="BzSE3qXNDW1A7PbjzAHN-20" edge="1">
          <mxGeometry relative="1" as="geometry" />
        </mxCell>
        <mxCell id="BzSE3qXNDW1A7PbjzAHN-38" value="" style="edgeStyle=orthogonalEdgeStyle;rounded=0;orthogonalLoop=1;jettySize=auto;html=1;" parent="1" source="BzSE3qXNDW1A7PbjzAHN-39" target="BzSE3qXNDW1A7PbjzAHN-41" edge="1">
          <mxGeometry relative="1" as="geometry" />
        </mxCell>
        <mxCell id="BzSE3qXNDW1A7PbjzAHN-39" value="" style="strokeWidth=2;html=1;shape=mxgraph.flowchart.decision;whiteSpace=wrap;fillColor=#f8cecc;strokeColor=#b85450;" parent="1" vertex="1">
          <mxGeometry x="470" y="155" width="40" height="30" as="geometry" />
        </mxCell>
        <UserObject label="Sim (5GSA)" placeholders="1" name="Variable" id="BzSE3qXNDW1A7PbjzAHN-40">
          <mxCell style="text;html=1;strokeColor=none;fillColor=none;align=center;verticalAlign=middle;whiteSpace=wrap;overflow=hidden;" parent="1" vertex="1">
            <mxGeometry x="507.5" y="170" width="70" height="20" as="geometry" />
          </mxCell>
        </UserObject>
        <mxCell id="BzSE3qXNDW1A7PbjzAHN-41" value="" style="ellipse;html=1;shape=endState;fillColor=#000000;strokeColor=#ff0000;" parent="1" vertex="1">
          <mxGeometry x="475" y="220" width="30" height="30" as="geometry" />
        </mxCell>
        <UserObject label="As-Is" placeholders="1" name="Variable" id="BzSE3qXNDW1A7PbjzAHN-42">
          <mxCell style="text;html=1;strokeColor=none;fillColor=none;align=center;verticalAlign=middle;whiteSpace=wrap;overflow=hidden;" parent="1" vertex="1">
            <mxGeometry x="472.5" y="250" width="35" height="20" as="geometry" />
          </mxCell>
        </UserObject>
        <UserObject label="Não (4G)" placeholders="1" name="Variable" id="BzSE3qXNDW1A7PbjzAHN-43">
          <mxCell style="text;html=1;strokeColor=none;fillColor=none;align=center;verticalAlign=middle;whiteSpace=wrap;overflow=hidden;" parent="1" vertex="1">
            <mxGeometry x="430" y="190" width="60" height="20" as="geometry" />
          </mxCell>
        </UserObject>
        <mxCell id="BzSE3qXNDW1A7PbjzAHN-44" value="&lt;h1&gt;Desenvolvimento&lt;/h1&gt;&lt;p style=&quot;border-color: var(--border-color);&quot;&gt;- Alteração em JOB que carrega informações da móvel: premissa de novo campo nos arquivos gerados pela móvel e criação de novo campo (marcação tecnologia 5GSA) na base NETSMS;&lt;/p&gt;&lt;p style=&quot;border-color: var(--border-color);&quot;&gt;- Nova regra para exibir campo de tecnologia para planos com marcação. Esse campo será exibido na tela de agregado informativo e será obrigatório que o vendedor selecione uma opção de tecnologia (ex: 4G/5GSA);&lt;/p&gt;&lt;p style=&quot;border-color: var(--border-color);&quot;&gt;- Ocultar campo &quot;agregados informativos&quot; no NETSales e habilitar matriz de agregado informativo x planos móveis, considerando somente 1 agregado para todos os planos (&lt;b&gt;avaliar impacto API Proposal BASE DXC&lt;/b&gt;);&lt;/p&gt;&lt;p style=&quot;border-color: var(--border-color);&quot;&gt;&lt;span style=&quot;background-color: initial;&quot;&gt;- Novo campo na interface com ativação simplificada - Informar sempre a tecnologia contratada no plano (ex: 4G/5GSA):&amp;nbsp;&lt;/span&gt;&lt;b style=&quot;background-color: initial;&quot;&gt;Robô e backend somente, sem alteração no NETSales/NETSMS &amp;gt;&amp;gt; Global Hitss.&lt;/b&gt;&lt;br&gt;&lt;/p&gt;&lt;p style=&quot;border-color: var(--border-color);&quot;&gt;- Avaliar e estimar possível impacto no processo de aviso de compras;&lt;/p&gt;&lt;p style=&quot;border-color: var(--border-color);&quot;&gt;- Estimar testes de faturamento&lt;/p&gt;" style="text;html=1;strokeColor=none;fillColor=none;spacing=5;spacingTop=-20;whiteSpace=wrap;overflow=hidden;rounded=0;" parent="1" vertex="1">
          <mxGeometry x="10" y="260" width="430" height="320" as="geometry" />
        </mxCell>
        <UserObject label="Vendedor seleciona tecnologia" placeholders="1" name="Variable" id="BzSE3qXNDW1A7PbjzAHN-45">
          <mxCell style="text;html=1;strokeColor=none;fillColor=none;align=center;verticalAlign=middle;whiteSpace=wrap;overflow=hidden;" parent="1" vertex="1">
            <mxGeometry x="405" y="130" width="175" height="20" as="geometry" />
          </mxCell>
        </UserObject>
        <mxCell id="rwDETSkTa595uDJHdH-S-2" style="edgeStyle=orthogonalEdgeStyle;rounded=0;orthogonalLoop=1;jettySize=auto;html=1;entryX=0.5;entryY=0;entryDx=0;entryDy=0;" edge="1" parent="1" source="rwDETSkTa595uDJHdH-S-1" target="BzSE3qXNDW1A7PbjzAHN-1">
          <mxGeometry relative="1" as="geometry" />
        </mxCell>
        <mxCell id="rwDETSkTa595uDJHdH-S-1" value="Arq Móvel" style="strokeWidth=2;html=1;shape=mxgraph.flowchart.multi-document;whiteSpace=wrap;fillColor=#f8cecc;strokeColor=#b85450;" vertex="1" parent="1">
          <mxGeometry x="20" y="27.5" width="100" height="60" as="geometry" />
        </mxCell>
      </root>
    </mxGraphModel>
  </diagram>
  <diagram id="bxYEZb4xgfX0n4JsM8yp" name="Venda Base NETSales">
    <mxGraphModel dx="1050" dy="542" grid="1" gridSize="10" guides="1" tooltips="1" connect="1" arrows="1" fold="1" page="1" pageScale="1" pageWidth="827" pageHeight="1169" math="0" shadow="0">
      <root>
        <mxCell id="0" />
        <mxCell id="1" parent="0" />
        <mxCell id="xgCM8T2wfnTooxRTCJ_P-1" value="Venda Base COLETIVOS/ NETSales - Combo Multi - Compra de aparelho 5G" style="whiteSpace=wrap;html=1;aspect=fixed;fillColor=#f8cecc;strokeColor=#b85450;" parent="1" vertex="1">
          <mxGeometry x="120" y="130" width="80" height="80" as="geometry" />
        </mxCell>
        <mxCell id="xgCM8T2wfnTooxRTCJ_P-2" value="" style="edgeStyle=orthogonalEdgeStyle;rounded=0;orthogonalLoop=1;jettySize=auto;html=1;" parent="1" source="xgCM8T2wfnTooxRTCJ_P-3" target="xgCM8T2wfnTooxRTCJ_P-28" edge="1">
          <mxGeometry relative="1" as="geometry" />
        </mxCell>
        <mxCell id="xgCM8T2wfnTooxRTCJ_P-3" value="" style="strokeWidth=2;html=1;shape=mxgraph.flowchart.decision;whiteSpace=wrap;" parent="1" vertex="1">
          <mxGeometry x="340" y="42.5" width="40" height="30" as="geometry" />
        </mxCell>
        <mxCell id="xgCM8T2wfnTooxRTCJ_P-4" value="Possui produto com marcação de tecnologia 5GSA?" style="whiteSpace=wrap;html=1;aspect=fixed;fillColor=#f8cecc;strokeColor=#b85450;" parent="1" vertex="1">
          <mxGeometry x="210" y="17.5" width="80" height="80" as="geometry" />
        </mxCell>
        <UserObject label="Sim" placeholders="1" name="Variable" id="xgCM8T2wfnTooxRTCJ_P-5">
          <mxCell style="text;html=1;strokeColor=none;fillColor=none;align=center;verticalAlign=middle;whiteSpace=wrap;overflow=hidden;" parent="1" vertex="1">
            <mxGeometry x="380" y="30" width="40" height="20" as="geometry" />
          </mxCell>
        </UserObject>
        <mxCell id="xgCM8T2wfnTooxRTCJ_P-6" value="Cliente &lt;br&gt;Presencial" style="shape=umlActor;verticalLabelPosition=bottom;verticalAlign=top;html=1;" parent="1" vertex="1">
          <mxGeometry x="20" y="137.5" width="30" height="65" as="geometry" />
        </mxCell>
        <mxCell id="xgCM8T2wfnTooxRTCJ_P-7" value="" style="edgeStyle=elbowEdgeStyle;elbow=horizontal;endArrow=classic;html=1;curved=0;rounded=0;endSize=8;startSize=8;entryX=0;entryY=0.5;entryDx=0;entryDy=0;" parent="1" source="xgCM8T2wfnTooxRTCJ_P-6" target="xgCM8T2wfnTooxRTCJ_P-1" edge="1">
          <mxGeometry width="50" height="50" relative="1" as="geometry">
            <mxPoint x="390" y="310" as="sourcePoint" />
            <mxPoint x="440" y="260" as="targetPoint" />
          </mxGeometry>
        </mxCell>
        <mxCell id="xgCM8T2wfnTooxRTCJ_P-8" value="" style="edgeStyle=elbowEdgeStyle;elbow=horizontal;endArrow=classic;html=1;curved=0;rounded=0;endSize=8;startSize=8;entryX=0.5;entryY=1;entryDx=0;entryDy=0;exitX=1;exitY=0.5;exitDx=0;exitDy=0;" parent="1" source="xgCM8T2wfnTooxRTCJ_P-1" target="xgCM8T2wfnTooxRTCJ_P-4" edge="1">
          <mxGeometry width="50" height="50" relative="1" as="geometry">
            <mxPoint x="60" y="68" as="sourcePoint" />
            <mxPoint x="100" y="68" as="targetPoint" />
            <Array as="points">
              <mxPoint x="250" y="130" />
            </Array>
          </mxGeometry>
        </mxCell>
        <mxCell id="xgCM8T2wfnTooxRTCJ_P-10" value="" style="edgeStyle=elbowEdgeStyle;elbow=horizontal;endArrow=classic;html=1;curved=0;rounded=0;endSize=8;startSize=8;entryX=0;entryY=0.5;entryDx=0;entryDy=0;exitX=1;exitY=0.5;exitDx=0;exitDy=0;entryPerimeter=0;" parent="1" source="xgCM8T2wfnTooxRTCJ_P-4" target="xgCM8T2wfnTooxRTCJ_P-3" edge="1">
          <mxGeometry width="50" height="50" relative="1" as="geometry">
            <mxPoint x="180" y="68" as="sourcePoint" />
            <mxPoint x="220" y="68" as="targetPoint" />
          </mxGeometry>
        </mxCell>
        <mxCell id="xgCM8T2wfnTooxRTCJ_P-11" value="" style="edgeStyle=elbowEdgeStyle;elbow=horizontal;endArrow=classic;html=1;curved=0;rounded=0;endSize=8;startSize=8;exitX=1;exitY=0.5;exitDx=0;exitDy=0;exitPerimeter=0;entryX=0;entryY=0.5;entryDx=0;entryDy=0;entryPerimeter=0;" parent="1" source="xgCM8T2wfnTooxRTCJ_P-3" target="xgCM8T2wfnTooxRTCJ_P-13" edge="1">
          <mxGeometry width="50" height="50" relative="1" as="geometry">
            <mxPoint x="190" y="78" as="sourcePoint" />
            <mxPoint x="450" y="57.5" as="targetPoint" />
          </mxGeometry>
        </mxCell>
        <mxCell id="xgCM8T2wfnTooxRTCJ_P-13" value="" style="strokeWidth=2;html=1;shape=mxgraph.flowchart.decision;whiteSpace=wrap;fillColor=#f8cecc;strokeColor=#b85450;" parent="1" vertex="1">
          <mxGeometry x="600" y="42.5" width="40" height="30" as="geometry" />
        </mxCell>
        <UserObject label="Vendedor seleciona tecnologia" placeholders="1" name="Variable" id="xgCM8T2wfnTooxRTCJ_P-14">
          <mxCell style="text;html=1;strokeColor=none;fillColor=none;align=center;verticalAlign=middle;whiteSpace=wrap;overflow=hidden;" parent="1" vertex="1">
            <mxGeometry x="535" y="17.5" width="175" height="20" as="geometry" />
          </mxCell>
        </UserObject>
        <mxCell id="xgCM8T2wfnTooxRTCJ_P-15" value="" style="ellipse;html=1;shape=endState;fillColor=#000000;strokeColor=#ff0000;" parent="1" vertex="1">
          <mxGeometry x="730" y="42.5" width="30" height="30" as="geometry" />
        </mxCell>
        <UserObject label="As-Is" placeholders="1" name="Variable" id="xgCM8T2wfnTooxRTCJ_P-16">
          <mxCell style="text;html=1;strokeColor=none;fillColor=none;align=center;verticalAlign=middle;whiteSpace=wrap;overflow=hidden;" parent="1" vertex="1">
            <mxGeometry x="727.5" y="17.5" width="35" height="20" as="geometry" />
          </mxCell>
        </UserObject>
        <UserObject label="4G" placeholders="1" name="Variable" id="xgCM8T2wfnTooxRTCJ_P-17">
          <mxCell style="text;html=1;strokeColor=none;fillColor=none;align=center;verticalAlign=middle;whiteSpace=wrap;overflow=hidden;" parent="1" vertex="1">
            <mxGeometry x="670" y="60" width="40" height="20" as="geometry" />
          </mxCell>
        </UserObject>
        <mxCell id="xgCM8T2wfnTooxRTCJ_P-19" value="" style="edgeStyle=elbowEdgeStyle;elbow=horizontal;endArrow=classic;html=1;curved=0;rounded=0;endSize=8;startSize=8;exitX=1;exitY=0.5;exitDx=0;exitDy=0;entryX=0;entryY=0.5;entryDx=0;entryDy=0;exitPerimeter=0;" parent="1" source="xgCM8T2wfnTooxRTCJ_P-13" target="xgCM8T2wfnTooxRTCJ_P-15" edge="1">
          <mxGeometry width="50" height="50" relative="1" as="geometry">
            <mxPoint x="540" y="68" as="sourcePoint" />
            <mxPoint x="610" y="68" as="targetPoint" />
          </mxGeometry>
        </mxCell>
        <mxCell id="xgCM8T2wfnTooxRTCJ_P-20" value="Titular e depen. (caso cliente queira) recebem chip 5G" style="whiteSpace=wrap;html=1;aspect=fixed;" parent="1" vertex="1">
          <mxGeometry x="580" y="130" width="80" height="80" as="geometry" />
        </mxCell>
        <mxCell id="xgCM8T2wfnTooxRTCJ_P-21" value="" style="edgeStyle=elbowEdgeStyle;elbow=horizontal;endArrow=classic;html=1;curved=0;rounded=0;endSize=8;startSize=8;exitX=0.5;exitY=1;exitDx=0;exitDy=0;entryX=0.5;entryY=0;entryDx=0;entryDy=0;exitPerimeter=0;" parent="1" source="xgCM8T2wfnTooxRTCJ_P-13" target="xgCM8T2wfnTooxRTCJ_P-20" edge="1">
          <mxGeometry width="50" height="50" relative="1" as="geometry">
            <mxPoint x="540" y="68" as="sourcePoint" />
            <mxPoint x="610" y="68" as="targetPoint" />
          </mxGeometry>
        </mxCell>
        <UserObject label="5GSA" placeholders="1" name="Variable" id="xgCM8T2wfnTooxRTCJ_P-22">
          <mxCell style="text;html=1;strokeColor=none;fillColor=none;align=center;verticalAlign=middle;whiteSpace=wrap;overflow=hidden;" parent="1" vertex="1">
            <mxGeometry x="580" y="90" width="40" height="20" as="geometry" />
          </mxCell>
        </UserObject>
        <mxCell id="xgCM8T2wfnTooxRTCJ_P-23" value="" style="edgeStyle=elbowEdgeStyle;elbow=horizontal;endArrow=classic;html=1;curved=0;rounded=0;endSize=8;startSize=8;exitX=0.5;exitY=1;exitDx=0;exitDy=0;entryX=0.5;entryY=0;entryDx=0;entryDy=0;" parent="1" source="xgCM8T2wfnTooxRTCJ_P-20" target="xgCM8T2wfnTooxRTCJ_P-25" edge="1">
          <mxGeometry width="50" height="50" relative="1" as="geometry">
            <mxPoint x="540" y="68" as="sourcePoint" />
            <mxPoint x="620" y="304" as="targetPoint" />
          </mxGeometry>
        </mxCell>
        <mxCell id="xgCM8T2wfnTooxRTCJ_P-24" value="" style="edgeStyle=orthogonalEdgeStyle;rounded=0;orthogonalLoop=1;jettySize=auto;html=1;" parent="1" source="xgCM8T2wfnTooxRTCJ_P-25" target="xgCM8T2wfnTooxRTCJ_P-39" edge="1">
          <mxGeometry relative="1" as="geometry" />
        </mxCell>
        <mxCell id="xgCM8T2wfnTooxRTCJ_P-25" value="Entrega/troca&amp;nbsp; chip 5G" style="whiteSpace=wrap;html=1;aspect=fixed;" parent="1" vertex="1">
          <mxGeometry x="580" y="260" width="80" height="80" as="geometry" />
        </mxCell>
        <mxCell id="xgCM8T2wfnTooxRTCJ_P-26" value="&lt;p style=&quot;line-height: normal; margin: 0pt 0in; text-indent: 0in; direction: ltr; unicode-bidi: embed; word-break: normal;&quot;&gt;Ativa plano com oferta serviço 5GSA + chip 5G&lt;/p&gt;" style="whiteSpace=wrap;html=1;aspect=fixed;fillColor=#e1d5e7;strokeColor=#9673a6;" parent="1" vertex="1">
          <mxGeometry x="580" y="370" width="80" height="80" as="geometry" />
        </mxCell>
        <mxCell id="xgCM8T2wfnTooxRTCJ_P-27" value="" style="edgeStyle=orthogonalEdgeStyle;rounded=0;orthogonalLoop=1;jettySize=auto;html=1;" parent="1" source="xgCM8T2wfnTooxRTCJ_P-28" target="xgCM8T2wfnTooxRTCJ_P-32" edge="1">
          <mxGeometry relative="1" as="geometry" />
        </mxCell>
        <mxCell id="xgCM8T2wfnTooxRTCJ_P-28" value="Cliente não elegível solicita chip 5G" style="whiteSpace=wrap;html=1;aspect=fixed;" parent="1" vertex="1">
          <mxGeometry x="320" y="130" width="80" height="80" as="geometry" />
        </mxCell>
        <UserObject label="Não" placeholders="1" name="Variable" id="xgCM8T2wfnTooxRTCJ_P-29">
          <mxCell style="text;html=1;strokeColor=none;fillColor=none;align=center;verticalAlign=middle;whiteSpace=wrap;overflow=hidden;" parent="1" vertex="1">
            <mxGeometry x="360" y="80" width="40" height="20" as="geometry" />
          </mxCell>
        </UserObject>
        <mxCell id="xgCM8T2wfnTooxRTCJ_P-30" value="" style="edgeStyle=orthogonalEdgeStyle;rounded=0;orthogonalLoop=1;jettySize=auto;html=1;" parent="1" source="xgCM8T2wfnTooxRTCJ_P-32" target="xgCM8T2wfnTooxRTCJ_P-20" edge="1">
          <mxGeometry relative="1" as="geometry" />
        </mxCell>
        <mxCell id="xgCM8T2wfnTooxRTCJ_P-31" value="" style="edgeStyle=orthogonalEdgeStyle;rounded=0;orthogonalLoop=1;jettySize=auto;html=1;" parent="1" source="xgCM8T2wfnTooxRTCJ_P-32" target="xgCM8T2wfnTooxRTCJ_P-34" edge="1">
          <mxGeometry relative="1" as="geometry" />
        </mxCell>
        <mxCell id="xgCM8T2wfnTooxRTCJ_P-32" value="" style="strokeWidth=2;html=1;shape=mxgraph.flowchart.decision;whiteSpace=wrap;fillColor=#f8cecc;strokeColor=#b85450;" parent="1" vertex="1">
          <mxGeometry x="470" y="155" width="40" height="30" as="geometry" />
        </mxCell>
        <UserObject label="Sim (5GSA)" placeholders="1" name="Variable" id="xgCM8T2wfnTooxRTCJ_P-33">
          <mxCell style="text;html=1;strokeColor=none;fillColor=none;align=center;verticalAlign=middle;whiteSpace=wrap;overflow=hidden;" parent="1" vertex="1">
            <mxGeometry x="505" y="170" width="70" height="20" as="geometry" />
          </mxCell>
        </UserObject>
        <mxCell id="xgCM8T2wfnTooxRTCJ_P-34" value="" style="ellipse;html=1;shape=endState;fillColor=#000000;strokeColor=#ff0000;" parent="1" vertex="1">
          <mxGeometry x="475" y="220" width="30" height="30" as="geometry" />
        </mxCell>
        <UserObject label="As-Is" placeholders="1" name="Variable" id="xgCM8T2wfnTooxRTCJ_P-35">
          <mxCell style="text;html=1;strokeColor=none;fillColor=none;align=center;verticalAlign=middle;whiteSpace=wrap;overflow=hidden;" parent="1" vertex="1">
            <mxGeometry x="472.5" y="250" width="35" height="20" as="geometry" />
          </mxCell>
        </UserObject>
        <UserObject label="Não (4G)" placeholders="1" name="Variable" id="xgCM8T2wfnTooxRTCJ_P-36">
          <mxCell style="text;html=1;strokeColor=none;fillColor=none;align=center;verticalAlign=middle;whiteSpace=wrap;overflow=hidden;" parent="1" vertex="1">
            <mxGeometry x="430" y="190" width="60" height="20" as="geometry" />
          </mxCell>
        </UserObject>
        <UserObject label="Vendedor seleciona tecnologia" placeholders="1" name="Variable" id="xgCM8T2wfnTooxRTCJ_P-38">
          <mxCell style="text;html=1;strokeColor=none;fillColor=none;align=center;verticalAlign=middle;whiteSpace=wrap;overflow=hidden;" parent="1" vertex="1">
            <mxGeometry x="405" y="130" width="175" height="20" as="geometry" />
          </mxCell>
        </UserObject>
        <mxCell id="xgCM8T2wfnTooxRTCJ_P-39" value="Adiciona oferta 5GSA" style="whiteSpace=wrap;html=1;aspect=fixed;" parent="1" vertex="1">
          <mxGeometry x="720" y="260" width="80" height="80" as="geometry" />
        </mxCell>
        <mxCell id="xgCM8T2wfnTooxRTCJ_P-40" value="" style="edgeStyle=elbowEdgeStyle;elbow=horizontal;endArrow=classic;html=1;curved=0;rounded=0;endSize=8;startSize=8;exitX=0.5;exitY=1;exitDx=0;exitDy=0;entryX=1;entryY=0.5;entryDx=0;entryDy=0;" parent="1" source="xgCM8T2wfnTooxRTCJ_P-39" target="xgCM8T2wfnTooxRTCJ_P-26" edge="1">
          <mxGeometry width="50" height="50" relative="1" as="geometry">
            <mxPoint x="630" y="220" as="sourcePoint" />
            <mxPoint x="670" y="410" as="targetPoint" />
            <Array as="points">
              <mxPoint x="760" y="380" />
            </Array>
          </mxGeometry>
        </mxCell>
        <mxCell id="lSW8Ol8LpE-LNySNOqAo-1" value="&lt;h1&gt;&lt;span style=&quot;background-color: initial;&quot;&gt;&lt;font style=&quot;font-size: 24px;&quot;&gt;Desenvolvimento&lt;/font&gt;&lt;/span&gt;&lt;br&gt;&lt;/h1&gt;&lt;p style=&quot;border-color: var(--border-color);&quot;&gt;- Alteração em JOB que carrega informações da móvel: premissa de novo campo nos arquivos gerados pela móvel e criação de novo campo (marcação tecnologia 5GSA) na base NETSMS;&lt;/p&gt;&lt;p style=&quot;border-color: var(--border-color);&quot;&gt;- Nova regra para exibir campo de tecnologia para planos com marcação. Esse campo será exibido na tela de agregado informativo e será obrigatório que o vendedor selecione uma opção de tecnologia (ex: 4G/5GSA);&lt;/p&gt;&lt;p style=&quot;border-color: var(--border-color);&quot;&gt;- Ocultar campo &quot;agregados informativos&quot; no NETSales e habilitar matriz de agregado informativo x planos móveis, considerando somente 1 agregado para todos os planos (&lt;b&gt;a&lt;/b&gt;&lt;b style=&quot;border-color: var(--border-color);&quot;&gt;valiar impacto API Proposal BASE DXC&lt;/b&gt;);&lt;/p&gt;&lt;p style=&quot;border-color: var(--border-color);&quot;&gt;- Novo campo na interface com ativação simplificada - Informar sempre a tecnologia contratada no plano (ex: 4G/5GSA):&amp;nbsp;&lt;b style=&quot;border-color: var(--border-color); background-color: initial;&quot;&gt;Robô e backend somente, sem alteração no NETSales/NETSMS &amp;gt;&amp;gt; Global Hitss.&lt;/b&gt;&lt;br style=&quot;border-color: var(--border-color);&quot;&gt;&lt;/p&gt;&lt;p style=&quot;border-color: var(--border-color);&quot;&gt;- Avaliar e estimar possível impacto no processo de aviso de compras;&lt;/p&gt;&lt;p style=&quot;border-color: var(--border-color);&quot;&gt;- Estimar testes de faturamento&lt;/p&gt;&lt;p style=&quot;border-color: var(--border-color);&quot;&gt;&lt;br style=&quot;border-color: var(--border-color);&quot;&gt;&lt;/p&gt;&lt;div style=&quot;border-color: var(--border-color);&quot;&gt;&lt;br style=&quot;border-color: var(--border-color);&quot;&gt;&lt;/div&gt;&lt;div&gt;&lt;br&gt;&lt;/div&gt;" style="text;html=1;strokeColor=none;fillColor=none;spacing=5;spacingTop=-20;whiteSpace=wrap;overflow=hidden;rounded=0;" parent="1" vertex="1">
          <mxGeometry x="10" y="250" width="570" height="300" as="geometry" />
        </mxCell>
        <mxCell id="5xvRPVCRD9oMEfSXuEBJ-1" style="edgeStyle=orthogonalEdgeStyle;rounded=0;orthogonalLoop=1;jettySize=auto;html=1;entryX=0.5;entryY=0;entryDx=0;entryDy=0;exitX=1;exitY=0.5;exitDx=0;exitDy=0;exitPerimeter=0;" edge="1" parent="1" source="5xvRPVCRD9oMEfSXuEBJ-2" target="xgCM8T2wfnTooxRTCJ_P-1">
          <mxGeometry relative="1" as="geometry">
            <mxPoint x="170" y="130" as="targetPoint" />
          </mxGeometry>
        </mxCell>
        <mxCell id="5xvRPVCRD9oMEfSXuEBJ-2" value="Arq Móvel" style="strokeWidth=2;html=1;shape=mxgraph.flowchart.multi-document;whiteSpace=wrap;fillColor=#f8cecc;strokeColor=#b85450;" vertex="1" parent="1">
          <mxGeometry x="20" y="27.5" width="100" height="60" as="geometry" />
        </mxCell>
      </root>
    </mxGraphModel>
  </diagram>
  <diagram name="API Digital NETSales" id="8EF_he5_NKHcALu05f2Y">
    <mxGraphModel dx="1050" dy="542" grid="1" gridSize="10" guides="1" tooltips="1" connect="1" arrows="1" fold="1" page="1" pageScale="1" pageWidth="827" pageHeight="1169" math="0" shadow="0">
      <root>
        <mxCell id="ONY0kNhQTpjNJVPnFu8S-0" />
        <mxCell id="ONY0kNhQTpjNJVPnFu8S-1" parent="ONY0kNhQTpjNJVPnFu8S-0" />
        <mxCell id="ONY0kNhQTpjNJVPnFu8S-2" value="Venda Base Digital - Combo Multi" style="whiteSpace=wrap;html=1;aspect=fixed;" parent="ONY0kNhQTpjNJVPnFu8S-1" vertex="1">
          <mxGeometry x="100" y="17.5" width="80" height="80" as="geometry" />
        </mxCell>
        <mxCell id="ONY0kNhQTpjNJVPnFu8S-3" value="Cliente Presencial&lt;br&gt;/Televendas" style="shape=umlActor;verticalLabelPosition=bottom;verticalAlign=top;html=1;" parent="ONY0kNhQTpjNJVPnFu8S-1" vertex="1">
          <mxGeometry x="34" y="25" width="30" height="65" as="geometry" />
        </mxCell>
        <mxCell id="ONY0kNhQTpjNJVPnFu8S-4" value="" style="edgeStyle=elbowEdgeStyle;elbow=horizontal;endArrow=classic;html=1;curved=0;rounded=0;endSize=8;startSize=8;entryX=0;entryY=0.5;entryDx=0;entryDy=0;" parent="ONY0kNhQTpjNJVPnFu8S-1" source="ONY0kNhQTpjNJVPnFu8S-3" target="ONY0kNhQTpjNJVPnFu8S-2" edge="1">
          <mxGeometry width="50" height="50" relative="1" as="geometry">
            <mxPoint x="390" y="310" as="sourcePoint" />
            <mxPoint x="440" y="260" as="targetPoint" />
          </mxGeometry>
        </mxCell>
        <mxCell id="ONY0kNhQTpjNJVPnFu8S-5" value="" style="edgeStyle=orthogonalEdgeStyle;rounded=0;orthogonalLoop=1;jettySize=auto;html=1;" parent="ONY0kNhQTpjNJVPnFu8S-1" source="ONY0kNhQTpjNJVPnFu8S-6" target="ONY0kNhQTpjNJVPnFu8S-7" edge="1">
          <mxGeometry relative="1" as="geometry" />
        </mxCell>
        <mxCell id="ONY0kNhQTpjNJVPnFu8S-6" value="" style="strokeWidth=2;html=1;shape=mxgraph.flowchart.decision;whiteSpace=wrap;" parent="ONY0kNhQTpjNJVPnFu8S-1" vertex="1">
          <mxGeometry x="600" y="304" width="40" height="30" as="geometry" />
        </mxCell>
        <mxCell id="ONY0kNhQTpjNJVPnFu8S-7" value="Abertura de OS (logística)" style="whiteSpace=wrap;html=1;aspect=fixed;" parent="ONY0kNhQTpjNJVPnFu8S-1" vertex="1">
          <mxGeometry x="710" y="279" width="80" height="80" as="geometry" />
        </mxCell>
        <mxCell id="ONY0kNhQTpjNJVPnFu8S-8" value="Entrega chip presencial" style="whiteSpace=wrap;html=1;aspect=fixed;" parent="ONY0kNhQTpjNJVPnFu8S-1" vertex="1">
          <mxGeometry x="450" y="279" width="80" height="80" as="geometry" />
        </mxCell>
        <mxCell id="ONY0kNhQTpjNJVPnFu8S-9" value="" style="edgeStyle=elbowEdgeStyle;elbow=horizontal;endArrow=classic;html=1;curved=0;rounded=0;endSize=8;startSize=8;exitX=0;exitY=0.5;exitDx=0;exitDy=0;entryX=1;entryY=0.5;entryDx=0;entryDy=0;exitPerimeter=0;" parent="ONY0kNhQTpjNJVPnFu8S-1" source="ONY0kNhQTpjNJVPnFu8S-6" target="ONY0kNhQTpjNJVPnFu8S-8" edge="1">
          <mxGeometry width="50" height="50" relative="1" as="geometry">
            <mxPoint x="540" y="112" as="sourcePoint" />
            <mxPoint x="610" y="112" as="targetPoint" />
          </mxGeometry>
        </mxCell>
        <UserObject label="Presencial" placeholders="1" name="Variable" id="ONY0kNhQTpjNJVPnFu8S-10">
          <mxCell style="text;html=1;strokeColor=none;fillColor=none;align=center;verticalAlign=middle;whiteSpace=wrap;overflow=hidden;" parent="ONY0kNhQTpjNJVPnFu8S-1" vertex="1">
            <mxGeometry x="540" y="294" width="60" height="20" as="geometry" />
          </mxCell>
        </UserObject>
        <UserObject label="Remoto" placeholders="1" name="Variable" id="ONY0kNhQTpjNJVPnFu8S-11">
          <mxCell style="text;html=1;strokeColor=none;fillColor=none;align=center;verticalAlign=middle;whiteSpace=wrap;overflow=hidden;" parent="ONY0kNhQTpjNJVPnFu8S-1" vertex="1">
            <mxGeometry x="640" y="294" width="60" height="20" as="geometry" />
          </mxCell>
        </UserObject>
        <mxCell id="ONY0kNhQTpjNJVPnFu8S-12" value="&lt;p style=&quot;line-height: normal; margin: 0pt 0in; text-indent: 0in; direction: ltr; unicode-bidi: embed; word-break: normal;&quot;&gt;Ativa plano com oferta serviço 5GSA + chip 5G&lt;/p&gt;" style="whiteSpace=wrap;html=1;aspect=fixed;fillColor=#e1d5e7;strokeColor=#9673a6;" parent="ONY0kNhQTpjNJVPnFu8S-1" vertex="1">
          <mxGeometry x="580" y="370" width="80" height="80" as="geometry" />
        </mxCell>
        <mxCell id="ONY0kNhQTpjNJVPnFu8S-13" value="" style="edgeStyle=elbowEdgeStyle;elbow=horizontal;endArrow=classic;html=1;curved=0;rounded=0;endSize=8;startSize=8;exitX=0.5;exitY=1;exitDx=0;exitDy=0;entryX=0;entryY=0.5;entryDx=0;entryDy=0;" parent="ONY0kNhQTpjNJVPnFu8S-1" source="ONY0kNhQTpjNJVPnFu8S-8" target="ONY0kNhQTpjNJVPnFu8S-12" edge="1">
          <mxGeometry width="50" height="50" relative="1" as="geometry">
            <mxPoint x="390" y="112" as="sourcePoint" />
            <mxPoint x="460" y="112" as="targetPoint" />
            <Array as="points">
              <mxPoint x="490" y="424" />
            </Array>
          </mxGeometry>
        </mxCell>
        <mxCell id="ONY0kNhQTpjNJVPnFu8S-14" value="" style="edgeStyle=elbowEdgeStyle;elbow=horizontal;endArrow=classic;html=1;curved=0;rounded=0;endSize=8;startSize=8;exitX=0.5;exitY=1;exitDx=0;exitDy=0;entryX=1;entryY=0.5;entryDx=0;entryDy=0;" parent="ONY0kNhQTpjNJVPnFu8S-1" source="ONY0kNhQTpjNJVPnFu8S-7" target="ONY0kNhQTpjNJVPnFu8S-12" edge="1">
          <mxGeometry width="50" height="50" relative="1" as="geometry">
            <mxPoint x="500" y="369" as="sourcePoint" />
            <mxPoint x="590" y="464" as="targetPoint" />
            <Array as="points">
              <mxPoint x="750" y="404" />
            </Array>
          </mxGeometry>
        </mxCell>
        <mxCell id="ONY0kNhQTpjNJVPnFu8S-15" value="&lt;h1&gt;Desenvolvimento&lt;/h1&gt;&lt;p style=&quot;border-color: var(--border-color);&quot;&gt;&lt;span style=&quot;background-color: initial;&quot;&gt;- Novo campo de seleção de tecnologia 4G/5GSA na integração com API;&lt;/span&gt;&lt;br&gt;&lt;/p&gt;&lt;p style=&quot;border-color: var(--border-color);&quot;&gt;- Nova regra de validação de tecnologia na API;&lt;/p&gt;&lt;p style=&quot;border-color: var(--border-color);&quot;&gt;- Gravar o tipo de tecnologia na base do NETSMS;&lt;/p&gt;&lt;p style=&quot;border-color: var(--border-color);&quot;&gt;- API integrada com o conceito de agregado informativo único no NETSMS. Definição desligada hoje e composta por uma matriz de planos e agregado&amp;nbsp;&lt;span style=&quot;background-color: initial;&quot;&gt;informativos;&lt;/span&gt;&lt;/p&gt;&lt;p style=&quot;border-color: var(--border-color);&quot;&gt;&lt;span style=&quot;background-color: initial;&quot;&gt;- Sinergia com alterações na jornada Prospect e Base solicitadas nessa mesma demanda;&lt;/span&gt;&lt;/p&gt;&lt;p style=&quot;border-color: var(--border-color);&quot;&gt;&lt;span style=&quot;background-color: initial;&quot;&gt;- Estimar testes de faturamento;&lt;/span&gt;&lt;/p&gt;" style="text;html=1;strokeColor=none;fillColor=none;spacing=5;spacingTop=-20;whiteSpace=wrap;overflow=hidden;rounded=0;" parent="ONY0kNhQTpjNJVPnFu8S-1" vertex="1">
          <mxGeometry x="10" y="200" width="420" height="250" as="geometry" />
        </mxCell>
        <mxCell id="ONY0kNhQTpjNJVPnFu8S-16" value="e-commerce" style="whiteSpace=wrap;html=1;aspect=fixed;" parent="ONY0kNhQTpjNJVPnFu8S-1" vertex="1">
          <mxGeometry x="220" y="17.5" width="80" height="80" as="geometry" />
        </mxCell>
        <mxCell id="ONY0kNhQTpjNJVPnFu8S-17" value="" style="edgeStyle=orthogonalEdgeStyle;rounded=0;orthogonalLoop=1;jettySize=auto;html=1;" parent="ONY0kNhQTpjNJVPnFu8S-1" source="ONY0kNhQTpjNJVPnFu8S-18" target="ONY0kNhQTpjNJVPnFu8S-23" edge="1">
          <mxGeometry relative="1" as="geometry" />
        </mxCell>
        <mxCell id="ONY0kNhQTpjNJVPnFu8S-18" value="API Proposals" style="whiteSpace=wrap;html=1;aspect=fixed;fillColor=#fff2cc;strokeColor=#d6b656;" parent="ONY0kNhQTpjNJVPnFu8S-1" vertex="1">
          <mxGeometry x="334" y="17.5" width="80" height="80" as="geometry" />
        </mxCell>
        <mxCell id="ONY0kNhQTpjNJVPnFu8S-19" style="edgeStyle=orthogonalEdgeStyle;rounded=0;orthogonalLoop=1;jettySize=auto;html=1;entryX=0.5;entryY=0;entryDx=0;entryDy=0;exitX=1;exitY=0.5;exitDx=0;exitDy=0;exitPerimeter=0;" parent="ONY0kNhQTpjNJVPnFu8S-1" source="ONY0kNhQTpjNJVPnFu8S-20" target="ONY0kNhQTpjNJVPnFu8S-22" edge="1">
          <mxGeometry relative="1" as="geometry" />
        </mxCell>
        <mxCell id="ONY0kNhQTpjNJVPnFu8S-20" value="" style="strokeWidth=2;html=1;shape=mxgraph.flowchart.decision;whiteSpace=wrap;fillColor=#fff2cc;strokeColor=#d6b656;" parent="ONY0kNhQTpjNJVPnFu8S-1" vertex="1">
          <mxGeometry x="560" y="42.5" width="40" height="30" as="geometry" />
        </mxCell>
        <mxCell id="ONY0kNhQTpjNJVPnFu8S-21" style="edgeStyle=orthogonalEdgeStyle;rounded=0;orthogonalLoop=1;jettySize=auto;html=1;entryX=0.5;entryY=0;entryDx=0;entryDy=0;entryPerimeter=0;" parent="ONY0kNhQTpjNJVPnFu8S-1" source="ONY0kNhQTpjNJVPnFu8S-22" target="ONY0kNhQTpjNJVPnFu8S-6" edge="1">
          <mxGeometry relative="1" as="geometry" />
        </mxCell>
        <mxCell id="ONY0kNhQTpjNJVPnFu8S-22" value="Criação Prospect no NETSales" style="whiteSpace=wrap;html=1;aspect=fixed;fillColor=#fff2cc;strokeColor=#d6b656;" parent="ONY0kNhQTpjNJVPnFu8S-1" vertex="1">
          <mxGeometry x="580" y="180" width="80" height="80" as="geometry" />
        </mxCell>
        <mxCell id="ONY0kNhQTpjNJVPnFu8S-23" value="Validação Dados Proposta (com informação&amp;nbsp; 4G/5GSA)" style="whiteSpace=wrap;html=1;aspect=fixed;fillColor=#fff2cc;strokeColor=#d6b656;" parent="ONY0kNhQTpjNJVPnFu8S-1" vertex="1">
          <mxGeometry x="442.5" y="13.75" width="87.5" height="87.5" as="geometry" />
        </mxCell>
        <mxCell id="ONY0kNhQTpjNJVPnFu8S-24" value="" style="edgeStyle=elbowEdgeStyle;elbow=horizontal;endArrow=classic;html=1;curved=0;rounded=0;endSize=8;startSize=8;exitX=1;exitY=0.5;exitDx=0;exitDy=0;entryX=0;entryY=0.5;entryDx=0;entryDy=0;entryPerimeter=0;" parent="ONY0kNhQTpjNJVPnFu8S-1" source="ONY0kNhQTpjNJVPnFu8S-23" target="ONY0kNhQTpjNJVPnFu8S-20" edge="1">
          <mxGeometry width="50" height="50" relative="1" as="geometry">
            <mxPoint x="390" y="310" as="sourcePoint" />
            <mxPoint x="580" y="90" as="targetPoint" />
            <Array as="points" />
          </mxGeometry>
        </mxCell>
        <UserObject label="S" placeholders="1" name="Variable" id="ONY0kNhQTpjNJVPnFu8S-25">
          <mxCell style="text;html=1;strokeColor=none;fillColor=none;align=center;verticalAlign=middle;whiteSpace=wrap;overflow=hidden;" parent="ONY0kNhQTpjNJVPnFu8S-1" vertex="1">
            <mxGeometry x="620" y="60" width="20" height="20" as="geometry" />
          </mxCell>
        </UserObject>
        <UserObject label="N" placeholders="1" name="Variable" id="ONY0kNhQTpjNJVPnFu8S-26">
          <mxCell style="text;html=1;strokeColor=none;fillColor=none;align=center;verticalAlign=middle;whiteSpace=wrap;overflow=hidden;" parent="ONY0kNhQTpjNJVPnFu8S-1" vertex="1">
            <mxGeometry x="560" y="90" width="20" height="20" as="geometry" />
          </mxCell>
        </UserObject>
        <mxCell id="ONY0kNhQTpjNJVPnFu8S-27" style="edgeStyle=orthogonalEdgeStyle;rounded=0;orthogonalLoop=1;jettySize=auto;html=1;entryX=0.5;entryY=1;entryDx=0;entryDy=0;exitX=0.5;exitY=1;exitDx=0;exitDy=0;exitPerimeter=0;" parent="ONY0kNhQTpjNJVPnFu8S-1" source="ONY0kNhQTpjNJVPnFu8S-20" target="ONY0kNhQTpjNJVPnFu8S-18" edge="1">
          <mxGeometry relative="1" as="geometry">
            <mxPoint x="610" y="68" as="sourcePoint" />
            <mxPoint x="630" y="190" as="targetPoint" />
            <Array as="points">
              <mxPoint x="580" y="150" />
              <mxPoint x="374" y="150" />
            </Array>
          </mxGeometry>
        </mxCell>
        <mxCell id="ONY0kNhQTpjNJVPnFu8S-28" value="" style="endArrow=classic;startArrow=classic;html=1;rounded=0;entryX=0;entryY=0.5;entryDx=0;entryDy=0;exitX=1;exitY=0.5;exitDx=0;exitDy=0;" parent="ONY0kNhQTpjNJVPnFu8S-1" source="ONY0kNhQTpjNJVPnFu8S-16" target="ONY0kNhQTpjNJVPnFu8S-18" edge="1">
          <mxGeometry width="50" height="50" relative="1" as="geometry">
            <mxPoint x="280" y="140" as="sourcePoint" />
            <mxPoint x="330" y="90" as="targetPoint" />
          </mxGeometry>
        </mxCell>
        <mxCell id="ONY0kNhQTpjNJVPnFu8S-29" value="" style="endArrow=classic;startArrow=classic;html=1;rounded=0;entryX=0;entryY=0.5;entryDx=0;entryDy=0;exitX=1;exitY=0.5;exitDx=0;exitDy=0;" parent="ONY0kNhQTpjNJVPnFu8S-1" source="ONY0kNhQTpjNJVPnFu8S-2" target="ONY0kNhQTpjNJVPnFu8S-16" edge="1">
          <mxGeometry width="50" height="50" relative="1" as="geometry">
            <mxPoint x="180" y="110" as="sourcePoint" />
            <mxPoint x="214" y="110" as="targetPoint" />
          </mxGeometry>
        </mxCell>
        <mxCell id="zFzSqD5jht2b9TpAlOuQ-0" value="Arq Móvel" style="strokeWidth=2;html=1;shape=mxgraph.flowchart.multi-document;whiteSpace=wrap;fillColor=#f8cecc;strokeColor=#b85450;" vertex="1" parent="ONY0kNhQTpjNJVPnFu8S-1">
          <mxGeometry x="210" y="120" width="100" height="60" as="geometry" />
        </mxCell>
        <mxCell id="zFzSqD5jht2b9TpAlOuQ-1" style="edgeStyle=orthogonalEdgeStyle;rounded=0;orthogonalLoop=1;jettySize=auto;html=1;entryX=0.13;entryY=0.986;entryDx=0;entryDy=0;entryPerimeter=0;" edge="1" parent="ONY0kNhQTpjNJVPnFu8S-1" source="zFzSqD5jht2b9TpAlOuQ-0" target="ONY0kNhQTpjNJVPnFu8S-18">
          <mxGeometry relative="1" as="geometry" />
        </mxCell>
      </root>
    </mxGraphModel>
  </diagram>
</mxfile>
